<svg width="34" height="33" viewBox="0 0 34 33" fill="none" xmlns="http://www.w3.org/2000/svg">
<g id="XMLID 28">
<path id="XMLID 34" d="M17 0C7.88244 0 0.5 7.38244 0.5 16.5C0.5 25.6176 7.88244 33 17 33C26.1176 33 33.5 25.6176 33.5 16.5C33.5 7.38244 26.1012 0 17 0ZM17 31.8378C8.52083 31.8378 1.64583 24.9628 1.64583 16.4836C1.64583 8.00446 8.52083 1.14583 17 1.14583C25.4792 1.14583 32.3542 8.02083 32.3542 16.5C32.3542 24.9792 25.4792 31.8378 17 31.8378Z" fill="#777171"/>
<g id="XMLID 29">
<path id="XMLID 33" d="M15.0194 3.86328L10.6324 6.41685V13.6192H15.0194V3.86328Z" fill="#777171"/>
<path id="XMLID 32" d="M16.1488 3.84668V8.95382L26.6086 15.0595V9.90323L16.1488 3.84668Z" fill="#777171"/>
<path id="XMLID 31" d="M10.6324 19.2172V24.3734L25.4628 15.7142L21.0923 13.1606L10.6324 19.2172Z" fill="#777171"/>
<path id="XMLID 30" d="M11.1726 25.3883L18.244 29.4806V23.6859L16.1488 22.4746L11.1726 25.3883Z" fill="#777171"/>
</g>
</g>
</svg>
